<?xml version="1.0" standalone="no"?>
<!DOCTYPE svg PUBLIC "-//W3C//DTD SVG 20010904//EN"
 "http://www.w3.org/TR/2001/REC-SVG-20010904/DTD/svg10.dtd">
<svg version="1.0" xmlns="http://www.w3.org/2000/svg"
 width="512.000000pt" height="512.000000pt" viewBox="0 0 512.000000 512.000000"
 preserveAspectRatio="xMidYMid meet">
<metadata>
Created by potrace 1.11, written by Peter Selinger 2001-2013
</metadata>
<g transform="translate(0.000000,512.000000) scale(0.100000,-0.100000)"
fill="#000000" stroke="none">
<path d="M2058 3465 l-725 -726 -215 216 c-119 118 -220 215 -225 215 -5 0
-21 -13 -36 -28 l-27 -28 238 -235 c130 -129 244 -234 252 -233 8 1 20 2 26 3
21 2 1494 1483 1487 1494 -13 21 -37 47 -44 47 -4 0 -333 -326 -731 -725z"/>
<path d="M2412 3080 c-467 -468 -742 -750 -744 -765 -3 -13 -1 -29 3 -36 4 -7
110 -115 235 -241 l228 -228 28 27 c15 15 28 30 28 34 0 4 -94 102 -210 218
-115 115 -210 214 -210 218 0 4 324 332 720 728 396 396 720 724 720 728 0 8
-46 57 -53 57 -3 0 -338 -333 -745 -740z"/>
<path d="M3326 3651 l-28 -29 650 -650 650 -650 28 29 28 30 -650 650 -650
650 -28 -30z"/>
<path d="M2957 3282 c-15 -15 -27 -31 -27 -35 0 -4 96 -103 214 -220 l214
-214 -724 -724 c-398 -398 -724 -728 -724 -733 0 -8 47 -56 54 -56 2 0 337
334 745 741 607 608 741 747 743 770 2 25 -18 50 -142 177 -80 81 -186 186
-236 235 l-90 87 -27 -28z"/>
<path d="M494 2769 l-28 -30 649 -649 650 -650 29 29 28 29 -650 650 -650 650
-28 -29z"/>
<path d="M3780 2471 c-20 -7 -1500 -1474 -1500 -1488 0 -2 12 -15 26 -30 l25
-25 26 23 c14 13 341 340 728 727 l702 703 215 -215 c118 -119 219 -216 225
-216 5 0 21 13 36 28 l27 28 -238 237 c-131 130 -240 237 -242 236 -3 0 -16
-4 -30 -8z"/>
</g>
</svg>
